<svg width="105" height="84" viewBox="0 0 105 84" fill="none" xmlns="http://www.w3.org/2000/svg">
<g clip-path="url(#clip0_24_124)">
<path d="M89.8677 52.6432L47.2152 6.09621C47.1025 5.97322 46.9359 5.91454 46.771 5.93974L28.9258 8.6679C28.5306 8.72833 28.3626 9.20519 28.6327 9.49996L71.9638 56.7875C72.0822 56.9168 72.2597 56.9746 72.4315 56.9398L89.5981 53.4711C89.9795 53.394 90.1306 52.9301 89.8677 52.6432Z" fill="url(#paint0_linear_24_124)"/>
<path d="M89.1149 53H25.9812C25.8144 53 25.6586 53.0832 25.5658 53.2218L15.5211 68.2218C15.2987 68.554 15.5368 69 15.9366 69H80.0747C80.25 69 80.4125 68.9082 80.5029 68.7581L89.5431 53.7581C89.7439 53.4248 89.504 53 89.1149 53Z" fill="url(#paint1_linear_24_124)"/>
<path d="M28 49L42 25.3636L28 9V25.3636V49Z" fill="url(#paint2_linear_24_124)"/>
</g>
<defs>
<linearGradient id="paint0_linear_24_124" x1="65.1311" y1="25.6479" x2="53.3346" y2="36.4573" gradientUnits="userSpaceOnUse">
<stop stop-color="white"/>
<stop offset="1" stop-color="#C4C4C4"/>
</linearGradient>
<linearGradient id="paint1_linear_24_124" x1="52.5" y1="53" x2="52.5" y2="69" gradientUnits="userSpaceOnUse">
<stop stop-color="white"/>
<stop offset="1" stop-color="#C4C4C4"/>
</linearGradient>
<linearGradient id="paint2_linear_24_124" x1="35" y1="9" x2="35" y2="49" gradientUnits="userSpaceOnUse">
<stop stop-color="#B9B6B6"/>
<stop offset="1" stop-color="#FFFBFB"/>
</linearGradient>
<clipPath id="clip0_24_124">
<rect width="105" height="84" rx="16" fill="white"/>
</clipPath>
</defs>
</svg>
