<svg width="105" height="84" viewBox="0 0 105 84" fill="none" xmlns="http://www.w3.org/2000/svg">
<path d="M89.1149 15H25.9812C25.8144 15 25.6586 15.0832 25.5658 15.2218L15.5211 30.2218C15.2987 30.554 15.5368 31 15.9366 31H80.0747C80.25 31 80.4125 30.9082 80.5029 30.7581L89.5431 15.7581C89.7439 15.4248 89.504 15 89.1149 15Z" fill="url(#paint0_linear_24_120)"/>
<path d="M15.8851 34H79.0188C79.1856 34 79.3414 34.0832 79.4342 34.2218L89.4789 49.2218C89.7013 49.554 89.4632 50 89.0634 50H24.9253C24.75 50 24.5875 49.9082 24.4971 49.7581L15.4569 34.7581C15.2561 34.4248 15.496 34 15.8851 34Z" fill="url(#paint1_linear_24_120)"/>
<path d="M89.1149 53H25.9812C25.8144 53 25.6586 53.0832 25.5658 53.2218L15.5211 68.2218C15.2987 68.554 15.5368 69 15.9366 69H80.0747C80.25 69 80.4125 68.9082 80.5029 68.7581L89.5431 53.7581C89.7439 53.4248 89.504 53 89.1149 53Z" fill="url(#paint2_linear_24_120)"/>
<defs>
<linearGradient id="paint0_linear_24_120" x1="52.5" y1="15" x2="52.5" y2="31" gradientUnits="userSpaceOnUse">
<stop stop-color="white"/>
<stop offset="1" stop-color="#C4C4C4"/>
</linearGradient>
<linearGradient id="paint1_linear_24_120" x1="52.5" y1="34" x2="52.5" y2="50" gradientUnits="userSpaceOnUse">
<stop stop-color="white"/>
<stop offset="1" stop-color="#C4C4C4"/>
</linearGradient>
<linearGradient id="paint2_linear_24_120" x1="52.5" y1="53" x2="52.5" y2="69" gradientUnits="userSpaceOnUse">
<stop stop-color="white"/>
<stop offset="1" stop-color="#C4C4C4"/>
</linearGradient>
</defs>
</svg>
